<svg id="Flat" height="512" viewBox="0 0 512 512" width="512" xmlns="http://www.w3.org/2000/svg"><path d="m128 168h-48s-8-24-8-40 8-40 8-40h48s8 24 8 40-8 40-8 40z" fill="#e09f2c"/><path d="m176 216h-144l48-48h48z" fill="#f7b030"/><path d="m32 216h144v32h-144z" fill="#e09f2c"/><path d="m32 424h144a0 0 0 0 1 0 0v48a16 16 0 0 1 -16 16h-112a16 16 0 0 1 -16-16v-48a0 0 0 0 1 0 0z" fill="#f7b030"/><path d="m32 248h144v192h-144z" fill="#bd620e"/><path d="m88 24h32a16 16 0 0 1 16 16v48a0 0 0 0 1 0 0h-64a0 0 0 0 1 0 0v-48a16 16 0 0 1 16-16z" fill="#95573a"/><path d="m136 40v16h-64v-16a16 16 0 0 1 16-16h32a16 16 0 0 1 16 16z" fill="#bd620e"/><path d="m311.731 213.845-15.731-133.845h-48l-15.731 133.845a63.866 63.866 0 0 0 -24.269 50.155v207.508a16.492 16.492 0 0 0 16.492 16.492h95.016a16.492 16.492 0 0 0 16.492-16.492v-207.508a63.866 63.866 0 0 0 -24.269-50.155z" fill="#35a872"/><path d="m448 189.4v-101.4h-48v101.4a56 56 0 0 0 -32 50.6v232a16 16 0 0 0 16 16h80a16 16 0 0 0 16-16v-232a56 56 0 0 0 -32-50.6z" fill="#962523"/><path d="m400 88h48v64h-48z" fill="#c7312e"/><path d="m384 56h80v32h-80z" fill="#a82a27"/><path d="m408 24h32a16 16 0 0 1 16 16v16a0 0 0 0 1 0 0h-64a0 0 0 0 1 0 0v-16a16 16 0 0 1 16-16z" fill="#962523"/><path d="m368 232h112v208h-112z" fill="#a82a27"/><rect fill="#f7b030" height="128" rx="24" width="48" x="80" y="280"/><ellipse cx="272" cy="344" fill="#e9eef2" rx="40" ry="64"/><path d="m312 56h-80l4.97-19.881a16 16 0 0 1 15.522-12.119h39.016a16 16 0 0 1 15.522 12.119z" fill="#e1e3e6"/><path d="m240 56h64a0 0 0 0 1 0 0v16a16 16 0 0 1 -16 16h-32a16 16 0 0 1 -16-16v-16a0 0 0 0 1 0 0z" fill="#2e9163"/><path d="m392 280h64v128h-64z" fill="#c7312e"/></svg>