<svg id="Flat" height="512" viewBox="0 0 512 512" width="512" xmlns="http://www.w3.org/2000/svg"><path d="m391.691 351.193-14.345-208a128 128 0 0 0 -127.697-119.193h-17.049a128 128 0 0 0 -127.7 119.193l-14.345 208a128 128 0 0 0 127.702 136.807h45.737a128 128 0 0 0 127.697-136.807zm-150.566-87.193a72 72 0 1 1 72-72 72 72 0 0 1 -72 72z" fill="#ffc9c9"/><path d="m240.26 120.01a71.633 71.633 0 0 0 -29.45 6.67c-16.13-11.24-26.93-31.55-26.93-54.68a69.023 69.023 0 0 1 14.95-43.49 128.111 128.111 0 0 1 33.77-4.51h7.28c-22.06 0-40 21.53-40 48s17.94 48 40 48c.13 0 .25 0 .38.01z" fill="#f7c3c3"/><circle cx="239.875" cy="72" fill="#ed8989" r="16"/><path d="m416 172.828v-36.828a24 24 0 0 0 -48 0v36.828c-14.343 6.226-24 17.849-24 31.172 0 19.882 21.49 36 48 36s48-16.118 48-36c0-13.323-9.657-24.946-24-31.172z" fill="#fbe9d8"/><path d="m376 264h32a64 64 0 0 1 64 64v128a32 32 0 0 1 -32 32h-96a32 32 0 0 1 -32-32v-128a64 64 0 0 1 64-64z" fill="#e9eef2"/><g fill="#3397e8"><path d="m440 328h-24a8 8 0 0 1 0-16h24a8 8 0 0 1 0 16z"/><path d="m440 360h-24a8 8 0 0 1 0-16h24a8 8 0 0 1 0 16z"/><path d="m440 392h-24a8 8 0 0 1 0-16h24a8 8 0 0 1 0 16z"/><path d="m440 424h-24a8 8 0 0 1 0-16h24a8 8 0 0 1 0 16z"/><path d="m440 456h-24a8 8 0 0 1 0-16h24a8 8 0 0 1 0 16z"/></g><path d="m211.172 424h36.828a24 24 0 0 0 0-48h-36.828c-6.226-14.343-17.849-24-31.172-24-19.882 0-36 21.49-36 48s16.118 48 36 48c13.323 0 24.946-9.657 31.172-24z" fill="#fbe9d8"/><path d="m104 336a64 64 0 1 0 64 64 64 64 0 0 0 -64-64zm0 96a32 32 0 1 1 32-32 32 32 0 0 1 -32 32z" fill="#266fab"/><rect fill="#3397e8" height="176" rx="16" width="32" x="136" y="312"/><rect fill="#3397e8" height="64" rx="16" width="128" x="328" y="208"/></svg>