<svg id="Flat" height="512" viewBox="0 0 512 512" width="512" xmlns="http://www.w3.org/2000/svg"><path d="m24 160a8 8 0 0 1 -8-8v-32a8 8 0 0 1 8-8h64a8 8 0 0 1 0 16h-56v24a8 8 0 0 1 -8 8z" fill="#414649"/><path d="m488 160a8 8 0 0 1 -8-8v-24h-56a8 8 0 0 1 0-16h64a8 8 0 0 1 8 8v32a8 8 0 0 1 -8 8z" fill="#414649"/><path d="m488 400h-64a8 8 0 0 1 0-16h56v-24a8 8 0 0 1 16 0v32a8 8 0 0 1 -8 8z" fill="#414649"/><path d="m88 400h-64a8 8 0 0 1 -8-8v-32a8 8 0 0 1 16 0v24h56a8 8 0 0 1 0 16z" fill="#414649"/><g fill="#7e8589"><path d="m64 368a8 8 0 0 1 -8-8v-208a8 8 0 0 1 16 0v208a8 8 0 0 1 -8 8z"/><path d="m96 368a8 8 0 0 1 -8-8v-208a8 8 0 0 1 16 0v208a8 8 0 0 1 -8 8z"/><path d="m448 368a8 8 0 0 1 -8-8v-208a8 8 0 0 1 16 0v208a8 8 0 0 1 -8 8z"/><path d="m416 368a8 8 0 0 1 -8-8v-208a8 8 0 0 1 16 0v208a8 8 0 0 1 -8 8z"/><path d="m160 352a8 8 0 0 1 -8-8v-192a8 8 0 0 1 16 0v192a8 8 0 0 1 -8 8z"/><path d="m192 352a8 8 0 0 1 -8-8v-192a8 8 0 0 1 16 0v192a8 8 0 0 1 -8 8z"/><path d="m288 352a8 8 0 0 1 -8-8v-192a8 8 0 0 1 16 0v192a8 8 0 0 1 -8 8z"/><path d="m224 352a8 8 0 0 1 -8-8v-192a8 8 0 0 1 16 0v192a8 8 0 0 1 -8 8z"/><path d="m256 352a8 8 0 0 1 -8-8v-192a8 8 0 0 1 16 0v192a8 8 0 0 1 -8 8z"/><path d="m320 352a8 8 0 0 1 -8-8v-192a8 8 0 0 1 16 0v192a8 8 0 0 1 -8 8z"/><path d="m352 352a8 8 0 0 1 -8-8v-192a8 8 0 0 1 16 0v192a8 8 0 0 1 -8 8z"/></g><path d="m488 224h-464a8 8 0 0 1 0-16h464a8 8 0 0 1 0 16z" fill="#414649"/></svg>