<svg id="Flat" height="512" viewBox="0 0 512 512" width="512" xmlns="http://www.w3.org/2000/svg"><path d="m384 40v432l-16 16-16-16-16 16-16-16-16 16-16-16-16 16-16-16-16 16-16-16-16 16-16-16-16 16-16-16-16 16-16-16v-432l16-16 16 16 16-16 16 16 16-16 16 16 16-16 16 16 16-16 16 16 16-16 16 16 16-16 16 16 16-16z" fill="#e9eef2"/><g fill="#b6b9ba"><path d="m288 208h-112a8 8 0 0 1 0-16h112a8 8 0 0 1 0 16z"/><path d="m336 208h-16a8 8 0 0 1 0-16h16a8 8 0 0 1 0 16z"/><path d="m288 240h-112a8 8 0 0 1 0-16h112a8 8 0 0 1 0 16z"/><path d="m336 240h-16a8 8 0 0 1 0-16h16a8 8 0 0 1 0 16z"/><path d="m288 272h-112a8 8 0 0 1 0-16h112a8 8 0 0 1 0 16z"/><path d="m336 272h-16a8 8 0 0 1 0-16h16a8 8 0 0 1 0 16z"/><path d="m288 304h-112a8 8 0 0 1 0-16h112a8 8 0 0 1 0 16z"/><path d="m336 304h-16a8 8 0 0 1 0-16h16a8 8 0 0 1 0 16z"/><path d="m288 336h-112a8 8 0 0 1 0-16h112a8 8 0 0 1 0 16z"/><path d="m336 336h-16a8 8 0 0 1 0-16h16a8 8 0 0 1 0 16z"/><path d="m336 368h-160a8 8 0 0 1 0-16h160a8 8 0 0 1 0 16z"/><path d="m216 400h-40a8 8 0 0 1 0-16h40a8 8 0 0 1 0 16z"/><path d="m336 400h-16a8 8 0 0 1 0-16h16a8 8 0 0 1 0 16z"/><path d="m288 440h-64a8 8 0 0 1 0-16h64a8 8 0 0 1 0 16z"/><path d="m168 96h80v32h-80z"/><path d="m208 168h-32a8 8 0 0 1 0-16h32a8 8 0 0 1 0 16z"/><path d="m320 96a8 8 0 0 1 -8-8v-8a8 8 0 0 1 16 0v8a8 8 0 0 1 -8 8z"/><path d="m320 160a24.028 24.028 0 0 1 -24-24 8 8 0 0 1 16 0 8 8 0 1 0 8-8 24 24 0 1 1 24-24 8 8 0 0 1 -16 0 8 8 0 1 0 -8 8 24 24 0 0 1 0 48z"/><path d="m320 168a8 8 0 0 1 -8-8v-8a8 8 0 0 1 16 0v8a8 8 0 0 1 -8 8z"/></g></svg>