<svg id="Flat" height="512" viewBox="0 0 512 512" width="512" xmlns="http://www.w3.org/2000/svg"><path d="m24 152h352v208h-352z" fill="#ffb632"/><path d="m376 152h112v208h-112z" fill="#eba72e"/><path d="m432 152h56v208h-56z" fill="#f2c837"/><path d="m432 152h56v208h-56z" fill="#e09f2c"/><path d="m56 200h224v128h-224z" fill="#ffd33a"/><g fill="#ea9f26"><path d="m224 192h-112a16 16 0 0 0 -16 16 16 16 0 0 0 16 16h16v16a16 16 0 0 0 16 16 16 16 0 0 0 16-16v48a16 16 0 0 0 16 16 16 16 0 0 0 16-16v-32a16 16 0 0 0 16 16 16 16 0 0 0 16-16v-32a16 16 0 0 0 16-16 16 16 0 0 0 -16-16z"/><path d="m344 240h-32a8 8 0 0 1 0-16h32a8 8 0 0 1 0 16z"/><path d="m344 272h-32a8 8 0 0 1 0-16h32a8 8 0 0 1 0 16z"/><path d="m344 304h-32a8 8 0 0 1 0-16h32a8 8 0 0 1 0 16z"/></g><path d="m376 152 56 80 56-80z" fill="#f7b030"/></svg>