<svg id="Flat" height="512" viewBox="0 0 512 512" width="512" xmlns="http://www.w3.org/2000/svg"><path d="m464 400h-320a32.036 32.036 0 0 1 -32-32v-16a32.036 32.036 0 0 1 32-32h8a8 8 0 0 1 0 16h-8a16.019 16.019 0 0 0 -16 16v16a16.019 16.019 0 0 0 16 16h320a8 8 0 0 1 0 16z" fill="#d0d2d4"/><circle cx="176" cy="416" fill="#7e8589" r="32"/><circle cx="400" cy="416" fill="#7e8589" r="32"/><circle cx="176" cy="416" fill="#414649" r="8"/><circle cx="400" cy="416" fill="#414649" r="8"/><path d="m494.207 130.953a8 8 0 0 0 -6.207-2.953h-382.841l-17.372-73.833a8 8 0 0 0 -7.787-6.167h-56a8 8 0 0 0 0 16h49.664l62.549 265.833a8 8 0 0 0 7.787 6.167h304a8 8 0 0 0 7.832-6.368l40-192a8 8 0 0 0 -1.625-6.679zm-150.533 13.047h63.264l-4 32h-60.6zm-95.348 0 1.334 32h-60.6l-4-32zm-139.4 0h60.013l4 32h-56.485zm11.294 48h54.719l4 32h-51.19zm11.294 48h49.425l4 32h-45.9zm18.823 80-7.529-32h44.131l4 32zm40.726-128h59.264l1.334 32h-56.6zm6 48h55.264l1.334 32h-52.6zm10 80-4-32h51.264l1.334 32zm113.264 0h-48.653l-1.334-32h51.32zm2-48h-52.653l-1.334-32h55.32zm2-48h-56.653l-1.334-32h59.32zm2-48h-60.653l-1.334-32h63.32zm58.612 144h-48.6l1.334-32h51.264zm6-48h-52.6l1.334-32h55.264zm6-48h-56.6l1.334-32h59.264zm44.561 96h-40.438l4-32h43.1zm10-48h-44.438l4-32h47.1zm10-48h-48.438l4-32h51.1zm10-48h-52.438l4-32h55.1z" fill="#d0d2d4"/></svg>