<svg id="Flat" height="512" viewBox="0 0 512 512" width="512" xmlns="http://www.w3.org/2000/svg"><path d="m24 352h464v64h-464z" fill="#596063"/><path d="m408 392h-336a8 8 0 0 1 0-16h336a8 8 0 0 1 0 16z" fill="#7e8589"/><path d="m24 416h464v32h-464z" fill="#414649"/><path d="m24 64h288v240h-288z" fill="#7e8589"/><path d="m312 240h160v64h-160z" fill="#6a7073"/><path d="m368 168h64a0 0 0 0 1 0 0v104a0 0 0 0 1 0 0h-80a0 0 0 0 1 0 0v-88a16 16 0 0 1 16-16z" fill="#dadcde"/><path d="m56 96h224v176h-224z" fill="#e9eef2"/><circle cx="440" cy="384" fill="#7e8589" r="8"/><path d="m280 304h208v48h-208z" fill="#414649"/><path d="m56 304h224v48h-224z" fill="#414649"/><path d="m440 280h-96a8 8 0 0 1 0-16h96a8 8 0 0 1 0 16z" fill="#414649"/><path d="m384 200v-16a16 16 0 0 0 -16-16h80a16 16 0 0 1 16 16v16z" fill="#e9eef2"/><path d="m56 192h224v80h-224z" fill="#dadcde"/><circle cx="184" cy="128" fill="#c3c6c7" r="8"/><circle cx="216" cy="128" fill="#c3c6c7" r="8"/><circle cx="248" cy="128" fill="#c3c6c7" r="8"/><path d="m176 168h-88a8 8 0 0 1 0-16h88a8 8 0 0 1 0 16z" fill="#c3c6c7"/><path d="m248 168h-16a8 8 0 0 1 0-16h16a8 8 0 0 1 0 16z" fill="#c3c6c7"/><path d="m272 304h16v48h-16z" fill="#4f5659"/><g fill="#c3c6c7"><path d="m88 192h32v40h-32z"/><path d="m56 232h32v40h-32z"/><path d="m120 232h32v40h-32z"/><path d="m152 192h32v40h-32z"/><path d="m184 232h32v40h-32z"/><path d="m216 192h32v40h-32z"/><path d="m248 232h32v40h-32z"/></g></svg>