<svg id="Flat" height="512" viewBox="0 0 512 512" width="512" xmlns="http://www.w3.org/2000/svg"><path d="m24 24h464v464h-464z" fill="#7e8589"/><path d="m56 56h128v288h-128z" fill="#414649"/><path d="m184 56h144v288h-144z" fill="#4f5659"/><path d="m328 56h128v288h-128z" fill="#414649"/><path d="m56 344h128v112h-128z" fill="#4f5659"/><path d="m328 344h128v112h-128z" fill="#4f5659"/><path d="m184 344h144v112h-144z" fill="#414649"/><circle cx="240" cy="400" fill="#eba72e" r="24"/><g fill="#ffb632"><circle cx="272" cy="400" r="24"/><circle cx="120" cy="400" r="24"/><circle cx="392" cy="400" r="24"/></g><path d="m232 56h48v80h-48z" fill="#9aa3a8"/><path d="m280 184h-48l-8-48h64z" fill="#7e8589"/><path d="m232 184h48v64h-48z" fill="#9aa3a8"/><path d="m272 296h-32l-8-48h48z" fill="#7e8589"/><path d="m368 56h48v80h-48z" fill="#9aa3a8"/><path d="m416 184h-48l-8-48h64z" fill="#7e8589"/><path d="m368 184h48v64h-48z" fill="#9aa3a8"/><path d="m408 296h-32l-8-48h48z" fill="#7e8589"/><path d="m96 56h48v80h-48z" fill="#9aa3a8"/><path d="m144 184h-48l-8-48h64z" fill="#7e8589"/><path d="m96 184h48v64h-48z" fill="#9aa3a8"/><path d="m136 296h-32l-8-48h48z" fill="#7e8589"/></svg>