<svg id="Flat" height="512" viewBox="0 0 512 512" width="512" xmlns="http://www.w3.org/2000/svg"><path d="m104 168c-17.167 3.972-36.176 20.527-48 56-16 48-24 56-24 56h152v-112z" fill="#95573a"/><circle cx="280" cy="168" fill="#f0c6a4" r="32"/><circle cx="72" cy="168" fill="#f0c6a4" r="32"/><rect fill="#f7cca9" height="240" rx="104" width="208" x="72" y="24"/><path d="m280 128v16c-60.95 0-100.13-29.02-103.73-31.79-31.43 17.26-68.51 31.79-104.27 31.79v-16a104 104 0 0 1 177.54-73.54q1.92 1.92 3.74 3.95a103.6 103.6 0 0 1 26.72 69.59z" fill="#95573a"/><g fill="#452d23"><circle cx="216" cy="168" r="8"/><circle cx="136" cy="168" r="8"/><path d="m184 192h-16a8 8 0 0 1 -8-8v-16a8 8 0 0 1 16 0v8h8a8 8 0 0 1 0 16z"/><path d="m176 232c-34.932 0-46.893-27.742-47.385-28.923a8 8 0 0 1 14.749-6.2c.388.885 8.681 19.123 32.636 19.123 24.385 0 32.536-18.886 32.615-19.077a8 8 0 1 1 14.77 6.154c-.492 1.181-12.453 28.923-47.385 28.923z"/></g><path d="m328 296v192h-304v-192a32 32 0 0 1 32-32h240a32 32 0 0 1 32 32z" fill="#f7b030"/><path d="m224 264a48 48 0 0 1 -96 0z" fill="#f7cca9"/><path d="m132.75 264-45.73 83.83a7.991 7.991 0 0 1 -7.03 4.17 7.9 7.9 0 0 1 -3.82-.98 7.988 7.988 0 0 1 -3.19-10.85l41.55-76.17z" fill="#c7312e"/><path d="m275.83 351.02a7.9 7.9 0 0 1 -3.82.98 7.991 7.991 0 0 1 -7.03-4.17l-45.73-83.83h18.22l41.55 76.17a7.988 7.988 0 0 1 -3.19 10.85z" fill="#c7312e"/><path d="m72 344h208v144h-208z" fill="#eb423f"/><path d="m488 488h-8a56.064 56.064 0 0 1 -56-56 8 8 0 0 1 16 0 40.045 40.045 0 0 0 40 40h8a8 8 0 0 1 0 16z" fill="#414649"/><path d="m432 440h-4.748c-11.249 0-20.988-6.945-23.428-16.7l-27.824-111.3 80-16v122.667c0 11.782-10.745 21.333-24 21.333z" fill="#596063"/><path d="m328 472h-80v-80a16 16 0 0 1 16-16h64z" fill="#dadcde"/><path d="m280 408v-16a16 16 0 0 0 -16-16h80a16 16 0 0 1 16 16v16z" fill="#e9eef2"/><path d="m216 456h160v32h-160z" fill="#596063"/><path d="m448 312h-136l-16-80 154.173 14.016a24 24 0 0 1 21.827 23.901v18.083a24 24 0 0 1 -24 24z" fill="#6a7073"/><path d="m344 312h-32l-16-80 32.59 2.96z" fill="#4f5659"/></svg>