<svg id="Flat" height="512" viewBox="0 0 512 512" width="512" xmlns="http://www.w3.org/2000/svg"><path d="m40 24h320v464h-320z" fill="#d49073"/><path d="m40 376v112h320v-48s-41.143-36.571-92.571-27.429-123.429 9.143-123.429-36.571z" fill="#e9eef2"/><path d="m72 72h256v64h-256z" fill="#e9eef2"/><path d="m272 216a24 24 0 1 1 24-24 24.027 24.027 0 0 1 -24 24zm0-32a8 8 0 1 0 8 8 8.009 8.009 0 0 0 -8-8z" fill="#ffd33a"/><path d="m312 272a24 24 0 1 1 24-24 24.028 24.028 0 0 1 -24 24zm0-32a8 8 0 1 0 8 8 8.009 8.009 0 0 0 -8-8z" fill="#ffd33a"/><path d="m272 328a24 24 0 1 1 24-24 24.027 24.027 0 0 1 -24 24zm0-32a8 8 0 1 0 8 8 8.009 8.009 0 0 0 -8-8z" fill="#ffd33a"/><path d="m232 384a24 24 0 1 1 24-24 24.027 24.027 0 0 1 -24 24zm0-32a8 8 0 1 0 8 8 8.009 8.009 0 0 0 -8-8z" fill="#ffd33a"/><path d="m288 440a24 24 0 1 1 24-24 24.028 24.028 0 0 1 -24 24zm0-32a8 8 0 1 0 8 8 8.009 8.009 0 0 0 -8-8z" fill="#ffd33a"/><path d="m360 24h112v464h-112z" fill="#c48669"/><g fill="#996046"><path d="m424 80h-32a8 8 0 0 1 0-16h32a8 8 0 0 1 0 16z"/><path d="m408 168h-16a8 8 0 0 1 0-16h16a8 8 0 0 1 0 16z"/><path d="m440 208h-48a8 8 0 0 1 0-16h48a8 8 0 0 1 0 16z"/><path d="m432 128h-40a8 8 0 0 1 0-16h40a8 8 0 0 1 0 16z"/><circle cx="392" cy="440" r="8"/><path d="m440 448h-16a8 8 0 0 1 0-16h16a8 8 0 0 1 0 16z"/><path d="m440 328h-48a8 8 0 0 1 0-16h48a8 8 0 0 1 0 16z"/><path d="m424 368h-32a8 8 0 0 1 0-16h32a8 8 0 0 1 0 16z"/><path d="m432 408h-40a8 8 0 0 1 0-16h40a8 8 0 0 1 0 16z"/><path d="m424 248h-32a8 8 0 0 1 0-16h32a8 8 0 0 1 0 16z"/><path d="m440 288h-48a8 8 0 0 1 0-16h48a8 8 0 0 1 0 16z"/></g><path d="m156.968 269.193 31.761-79.236a16 16 0 0 0 -29.7-11.906l-31.761 79.237c-11.449 2.862-22.23 12.455-27.738 26.195-8.219 20.506-1.584 42.459 14.82 49.035s36.366-4.717 44.585-25.223c5.505-13.74 4.335-28.123-1.967-38.102z" fill="#e1e3e6"/><path d="m72 296h-32v112h32a112 112 0 0 0 112-112z" fill="#eb423f"/><path d="m56 232a23.9 23.9 0 0 0 -16 6.13v35.74a23.994 23.994 0 1 0 16-41.87zm0 32a8 8 0 1 1 8-8 8.011 8.011 0 0 1 -8 8z" fill="#ffd33a"/><path d="m216 272a24 24 0 1 1 24-24 24.027 24.027 0 0 1 -24 24zm0-32a8 8 0 1 0 8 8 8.009 8.009 0 0 0 -8-8z" fill="#ffd33a"/><path d="m88 216a24 24 0 1 1 24-24 24.027 24.027 0 0 1 -24 24zm0-32a8 8 0 1 0 8 8 8.009 8.009 0 0 0 -8-8z" fill="#ffd33a"/></svg>