<svg id="Flat" height="512" viewBox="0 0 512 512" width="512" xmlns="http://www.w3.org/2000/svg"><path d="m352 48v320h-320v-144a32 32 0 0 0 0-64v-112h224a24 24 0 0 0 48 0z" fill="#ea9f26"/><path d="m488 304v160h-104a16 16 0 0 0 -32 0h-200v-32a32 32 0 0 0 0-64v-64z" fill="#f7b030"/><path d="m488 304h-336l154.53-53.29a24 24 0 0 0 45.47-10.71 24.5 24.5 0 0 0 -.48-4.8l32.48-11.2c80 16 104 80 104 80z" fill="#ffb632"/><circle cx="440" cy="408" fill="#ea9f26" r="24"/><circle cx="232" cy="360" fill="#ea9f26" r="24"/><circle cx="120" cy="120" fill="#ffb632" r="24"/><circle cx="296" cy="176" fill="#ffb632" r="24"/><circle cx="288" cy="416" fill="#ea9f26" r="16"/><circle cx="360" cy="352" fill="#ea9f26" r="16"/><circle cx="184" cy="208" fill="#ffb632" r="16"/><circle cx="88" cy="320" fill="#ffb632" r="16"/><circle cx="408" cy="272" fill="#ea9f26" r="8"/><g fill="#ffb632"><circle cx="104" cy="232" r="8"/><circle cx="240" cy="104" r="8"/></g></svg>