<svg id="Flat" height="512" viewBox="0 0 512 512" width="512" xmlns="http://www.w3.org/2000/svg"><path d="m312 440h-288l8-304 16-64h240l16 64z" fill="#c48669"/><path d="m48 24h240v48h-240z" fill="#d1ad8f"/><path d="m192 120-24-16-24 16v-96h48z" fill="#a36f58"/><path d="m184 312h304v176h-304z" fill="#b1bd70"/><path d="m184 376h304v56h-304z" fill="#8f9e46"/><ellipse cx="336" cy="400" fill="#ffd33a" rx="88" ry="56"/><path d="m24 440h160v48h-160z" fill="#a36f58"/><path d="m280 384h24a32 32 0 0 1 32 32v8a0 0 0 0 1 0 0h-24a32 32 0 0 1 -32-32v-8a0 0 0 0 1 0 0z" fill="#8f9e46" transform="matrix(-1 0 0 -1 616 808)"/><path d="m344 376v79.77q-3.945.225-8 .23t-8-.23v-79.77a8 8 0 0 1 16 0z" fill="#828c52"/><path d="m368 384h24a0 0 0 0 1 0 0v8a32 32 0 0 1 -32 32h-24a0 0 0 0 1 0 0v-8a32 32 0 0 1 32-32z" fill="#8f9e46"/><ellipse cx="128" cy="232" fill="#663c28" rx="39.453" ry="55.234" transform="matrix(.707 -.707 .707 .707 -126.558 158.461)"/><path d="m175.1 256.05a30.1 30.1 0 0 1 -8.04 15.01c-.5.5-1.01.98-1.54 1.42-14.31-.73-37.16-7.05-45.27-38.4-2.46-9.56-9.14-15.27-20.42-17.48a56.846 56.846 0 0 0 -17.82-.39 8.019 8.019 0 0 1 -2.01.09 34.86 34.86 0 0 1 3.86-16.45c17.08-1.53 44.86 3.02 51.89 30.23 3.45 13.37 10.77 21.8 21.76 25.06a39.133 39.133 0 0 0 16.88 1.02 6.124 6.124 0 0 1 .71-.11z" fill="#452d23"/><ellipse cx="208" cy="224" fill="#734b39" rx="55.234" ry="39.453" transform="matrix(.707 -.707 .707 .707 -97.47 212.686)"/><path d="m248.18 186.12c-.52 14.31-6.48 37.45-38.1 45.63-22.97 5.93-18.08 36.94-17.86 38.26a7.852 7.852 0 0 1 .08 1.99 34.86 34.86 0 0 1 -16.45-3.86c-1.52-17.08 3.02-44.86 30.23-51.89 32.02-8.27 25.95-37.28 25.67-38.51a7.5 7.5 0 0 1 -.15-.93 30.116 30.116 0 0 1 15.46 8.13c.38.38.75.78 1.12 1.18z" fill="#452d23"/></svg>