<svg id="Flat" height="512" viewBox="0 0 512 512" width="512" xmlns="http://www.w3.org/2000/svg"><path d="m280 272.017h208v191.954h-208z" fill="#ffc9c9"/><path d="m280 240.019h208v31.997h-208z" fill="#ed6f6d"/><circle cx="352" cy="327.971" fill="#f7b030" r="24"/><circle cx="432" cy="328" fill="#f78a25" r="24"/><circle cx="352" cy="407.971" fill="#fda2c6" r="24"/><circle cx="432" cy="408" fill="#d1a6f7" r="24"/><path d="m320 288.015h-64v-143.987a16 16 0 0 1 25.6-12.8l32 24a16 16 0 0 1 6.4 12.8z" fill="#d13330"/><path d="m320 287.986h-64l-8 32v128.014a16 16 0 0 0 16 16h48a16 16 0 0 0 16-16v-128.017z" fill="#ff9494"/><path d="m248 319.983h80c0 .017-8-31.983-8-31.983h-64z" fill="#ed8989"/><path d="m256 224h64v64h-64z" fill="#ff9494"/><ellipse cx="144" cy="315.985" fill="#ed6f6d" rx="120" ry="123.985"/><circle cx="144" cy="311.971" fill="#e9eef2" r="88"/><path d="m24 399.971h240a0 0 0 0 1 0 0v48a16 16 0 0 1 -16 16h-208a16 16 0 0 1 -16-16v-48a0 0 0 0 1 0 0z" fill="#d46360"/><path d="m112 399.971h64a0 0 0 0 1 0 0v16a16 16 0 0 1 -16 16h-32a16 16 0 0 1 -16-16v-16a0 0 0 0 1 0 0z" fill="#ed8989"/></svg>