<svg id="Flat" height="512" viewBox="0 0 512 512" width="512" xmlns="http://www.w3.org/2000/svg"><path d="m24 144h464v224h-464z" fill="#eb423f"/><path d="m144 144v16a8 8 0 0 1 -16 0v-16z" fill="#e9eef2"/><path d="m136 208a8 8 0 0 1 -8-8v-8a8 8 0 0 1 16 0v8a8 8 0 0 1 -8 8z" fill="#e9eef2"/><path d="m136 248a8 8 0 0 1 -8-8v-8a8 8 0 0 1 16 0v8a8 8 0 0 1 -8 8z" fill="#e9eef2"/><path d="m136 288a8 8 0 0 1 -8-8v-8a8 8 0 0 1 16 0v8a8 8 0 0 1 -8 8z" fill="#e9eef2"/><path d="m136 328a8 8 0 0 1 -8-8v-8a8 8 0 0 1 16 0v8a8 8 0 0 1 -8 8z" fill="#e9eef2"/><path d="m128 368v-16a8 8 0 0 1 16 0v16z" fill="#e9eef2"/><path d="m168 176h288v160h-288z" fill="#e9eef2"/><g fill="#a82a27"><path d="m104 184h-48a8 8 0 0 1 0-16h48a8 8 0 0 1 0 16z"/><path d="m104 216h-48a8 8 0 0 1 0-16h48a8 8 0 0 1 0 16z"/><path d="m104 248h-48a8 8 0 0 1 0-16h48a8 8 0 0 1 0 16z"/><path d="m104 280h-48a8 8 0 0 1 0-16h48a8 8 0 0 1 0 16z"/><path d="m104 312h-48a8 8 0 0 1 0-16h48a8 8 0 0 1 0 16z"/><path d="m104 344h-48a8 8 0 0 1 0-16h48a8 8 0 0 1 0 16z"/><path d="m232 304a8 8 0 0 1 -8-8v-60.687l-2.343 2.344a8 8 0 0 1 -11.314-11.314l16-16a8 8 0 0 1 13.657 5.657v80a8 8 0 0 1 -8 8z"/><path d="m280 304a24.027 24.027 0 0 1 -24-24v-48a24 24 0 0 1 48 0v48a24.027 24.027 0 0 1 -24 24zm0-80a8.009 8.009 0 0 0 -8 8v48a8 8 0 0 0 16 0v-48a8.009 8.009 0 0 0 -8-8z"/><path d="m344 296a8 8 0 0 1 -5.657-13.657l64-64a8 8 0 0 1 11.314 11.314l-64 64a7.974 7.974 0 0 1 -5.657 2.343z"/><circle cx="344" cy="232" r="8"/><circle cx="408" cy="280" r="8"/><circle cx="344" cy="232" r="8"/><circle cx="408" cy="280" r="8"/></g></svg>