<svg id="Flat" height="512" viewBox="0 0 512 512" width="512" xmlns="http://www.w3.org/2000/svg"><path d="m368 56h-80v-16a16 16 0 0 1 16-16h48a16 16 0 0 1 16 16z" fill="#d13330"/><path d="m248 168h160v112h-160z" fill="#d13330"/><path d="m408 146.087v21.913h-160v-21.913a32 32 0 0 1 5.785-18.351l50.215-71.736h48l50.215 71.736a32 32 0 0 1 5.785 18.351z" fill="#452d23"/><path d="m360 464c0 13.255-14.327 24-32 24s-32-10.745-32-24a24 24 0 0 1 -48 0l8-128-8-56h160l-8 56 8 128a24 24 0 0 1 -48 0z" fill="#452d23"/><path d="m248 264v-32h-128v32l-16 32v160l16 32h128l16-32v-160z" fill="#dadcde"/><path d="m248 264h-16a8 8 0 0 1 0-16h16z" fill="#c3c6c7"/><path d="m120 248h80a8 8 0 0 1 0 16h-80z" fill="#c3c6c7"/><path d="m104 296h160v160h-160z" fill="#d13330"/><path d="m204.6 456c14.063-24.8 27.4-48 27.4-88 0-25.119-8.591-49.057-17.648-72h-32c9.057 22.943 17.648 46.881 17.648 72 0 40-13.339 63.2-27.4 88z" fill="#e9eef2"/></svg>