<svg id="Flat" height="512" viewBox="0 0 512 512" width="512" xmlns="http://www.w3.org/2000/svg"><path d="m476.641 272h-441.282l12.841-83.534a32 32 0 0 1 31.8-28.466h352a32 32 0 0 1 31.8 28.466z" fill="#d49073"/><g fill="#f7cca9"><path d="m152 264c0 30.928-17.909 56-40 56s-40-25.072-40-56 17.909-72 40-72 40 41.072 40 72z"/><path d="m248 264c0 30.928-17.909 56-40 56s-40-25.072-40-56 17.909-72 40-72 40 41.072 40 72z"/><path d="m344 264c0 30.928-17.909 56-40 56s-40-25.072-40-56 17.909-72 40-72 40 41.072 40 72z"/><path d="m440 264c0 30.928-17.909 56-40 56s-40-25.072-40-56 17.909-72 40-72 40 41.072 40 72z"/></g><path d="m24 272h464v32h-464z" fill="#c48669"/><path d="m124.892 352h-25.784a32 32 0 0 1 -31.565-26.739l-3.543-21.261h96l-3.543 21.261a32 32 0 0 1 -31.565 26.739z" fill="#a36f58"/><path d="m220.892 352h-25.784a32 32 0 0 1 -31.565-26.739l-3.543-21.261h96l-3.543 21.261a32 32 0 0 1 -31.565 26.739z" fill="#a36f58"/><path d="m316.892 352h-25.784a32 32 0 0 1 -31.565-26.739l-3.543-21.261h96l-3.543 21.261a32 32 0 0 1 -31.565 26.739z" fill="#a36f58"/><path d="m412.892 352h-25.784a32 32 0 0 1 -31.565-26.739l-3.543-21.261h96l-3.543 21.261a32 32 0 0 1 -31.565 26.739z" fill="#a36f58"/></svg>