<svg id="Flat" height="512" viewBox="0 0 512 512" width="512" xmlns="http://www.w3.org/2000/svg"><path d="m312 128a8 8 0 0 0 -8 8v16h-32a8 8 0 0 0 0 16h32v16a8 8 0 0 0 16 0v-48a8 8 0 0 0 -8-8z" fill="#414649"/><path d="m400 152a8 8 0 0 1 -8-8v-96a8 8 0 0 1 16 0v96a8 8 0 0 1 -8 8z" fill="#9aa3a8"/><path d="m184 432h-112l32-72h80z" fill="#4f5659"/><path d="m184 296h224v128h-224z" fill="#757c80"/><path d="m184 392h224v32h-224z" fill="#4f5659"/><path d="m296 248h112v48h-112z" fill="#9aa3a8"/><path d="m296 216h112v32h-112z" fill="#757c80"/><path d="m400 128h8a0 0 0 0 1 0 0v88a0 0 0 0 1 0 0h-40a0 0 0 0 1 0 0v-56a32 32 0 0 1 32-32z" fill="#414649"/><path d="m224 296h-32l72-208h32z" fill="#4f5659"/><path d="m168 296v-272h-32v272 32h48v-32z" fill="#414649"/><path d="m40 72h96v104h-96z" fill="#95573a"/><path d="m80 72h16v104h-16z" fill="#5e3725"/><path d="m408 296a32 32 0 0 1 32 32v96a0 0 0 0 1 0 0h-32a0 0 0 0 1 0 0v-128a0 0 0 0 1 0 0z" fill="#4f5659"/><path d="m488 424h-48v-32h32z" fill="#414649"/><circle cx="176" cy="424" fill="#414649" r="64"/><circle cx="176" cy="424" fill="#6a7073" r="16"/><circle cx="360" cy="424" fill="#414649" r="64"/><path d="m408 56h-136a42.246 42.246 0 0 1 40.985-32h95.015z" fill="#414649"/><circle cx="360" cy="424" fill="#6a7073" r="16"/><path d="m136 184h-112a8 8 0 0 1 0-16h112a8 8 0 0 1 0 16z" fill="#414649"/></svg>