<svg id="Flat" height="512" viewBox="0 0 512 512" width="512" xmlns="http://www.w3.org/2000/svg"><rect fill="#e9eef2" height="464" rx="32" width="256" x="40" y="24"/><path d="m296 56h-256a32 32 0 0 1 32-32h192a32 32 0 0 1 32 32z" fill="#9aa3a8"/><path d="m296 456a32 32 0 0 1 -32 32h-192a32 32 0 0 1 -32-32z" fill="#9aa3a8"/><circle cx="96" cy="160" fill="#3397e8" r="24"/><circle cx="168" cy="160" fill="#3397e8" r="24"/><path d="m176 224h-16a8 8 0 0 1 0-16h16a8 8 0 0 1 0 16z" fill="#9aa3a8"/><circle cx="240" cy="160" fill="#3397e8" r="24"/><path d="m104 224h-16a8 8 0 0 1 0-16h16a8 8 0 0 1 0 16z" fill="#9aa3a8"/><path d="m248 224h-16a8 8 0 0 1 0-16h16a8 8 0 0 1 0 16z" fill="#9aa3a8"/><circle cx="96" cy="272" fill="#3397e8" r="24"/><circle cx="168" cy="272" fill="#3397e8" r="24"/><path d="m176 336h-16a8 8 0 0 1 0-16h16a8 8 0 0 1 0 16z" fill="#9aa3a8"/><circle cx="240" cy="272" fill="#3397e8" r="24"/><path d="m104 336h-16a8 8 0 0 1 0-16h16a8 8 0 0 1 0 16z" fill="#9aa3a8"/><circle cx="80" cy="104" fill="#9aa3a8" r="8"/><circle cx="112" cy="104" fill="#9aa3a8" r="8"/><circle cx="144" cy="104" fill="#9aa3a8" r="8"/><circle cx="96" cy="384" fill="#3397e8" r="24"/><circle cx="168" cy="384" fill="#3397e8" r="24"/><path d="m442.57 488h-197.14c-6.714 0-12.366-5.358-13.151-12.468l-16.279-147.532h256l-16.279 147.532c-.785 7.11-6.437 12.468-13.151 12.468z" fill="#eb423f"/><g fill="#d13330"><path d="m264 416a8 8 0 0 1 -8-8v-16a8 8 0 0 1 16 0v16a8 8 0 0 1 -8 8z"/><path d="m264 464a8 8 0 0 1 -8-8v-16a8 8 0 0 1 16 0v16a8 8 0 0 1 -8 8z"/><path d="m296 416a8 8 0 0 1 -8-8v-16a8 8 0 0 1 16 0v16a8 8 0 0 1 -8 8z"/><path d="m296 464a8 8 0 0 1 -8-8v-16a8 8 0 0 1 16 0v16a8 8 0 0 1 -8 8z"/><path d="m328 416a8 8 0 0 1 -8-8v-16a8 8 0 0 1 16 0v16a8 8 0 0 1 -8 8z"/><path d="m328 464a8 8 0 0 1 -8-8v-16a8 8 0 0 1 16 0v16a8 8 0 0 1 -8 8z"/><path d="m360 416a8 8 0 0 1 -8-8v-16a8 8 0 0 1 16 0v16a8 8 0 0 1 -8 8z"/><path d="m360 464a8 8 0 0 1 -8-8v-16a8 8 0 0 1 16 0v16a8 8 0 0 1 -8 8z"/><path d="m392 416a8 8 0 0 1 -8-8v-16a8 8 0 0 1 16 0v16a8 8 0 0 1 -8 8z"/><path d="m392 464a8 8 0 0 1 -8-8v-16a8 8 0 0 1 16 0v16a8 8 0 0 1 -8 8z"/><path d="m424 416a8 8 0 0 1 -8-8v-16a8 8 0 0 1 16 0v16a8 8 0 0 1 -8 8z"/><path d="m424 464a8 8 0 0 1 -8-8v-16a8 8 0 0 1 16 0v16a8 8 0 0 1 -8 8z"/><path d="m216 328h256v32h-256z"/></g><path d="m400.006 352a8 8 0 0 1 -7.161-4.424l-48-96a8 8 0 0 1 14.31-7.156l48 96a8 8 0 0 1 -7.149 11.58z" fill="#eb423f"/><path d="m287.994 352a8 8 0 0 1 -7.149-11.58l48-96a8 8 0 1 1 14.31 7.156l-48 96a8 8 0 0 1 -7.161 4.424z" fill="#eb423f"/></svg>