<svg id="Flat" height="512" viewBox="0 0 512 512" width="512" xmlns="http://www.w3.org/2000/svg"><path d="m432 136a40.119 40.119 0 0 0 -8.766.975 39.995 39.995 0 0 0 -60.908-51.795c-9.104-17.28-28.215-29.18-50.326-29.18-25.132 0-46.4 15.374-53.485 36.545a40 40 0 0 0 -55.908 49.664 40 40 0 0 0 21.393 73.791h208a40 40 0 0 0 0-80z" fill="#35a872"/><circle cx="208" cy="208" fill="#f7b030" r="72"/><circle cx="336" cy="232" fill="#b1bd70" r="72"/><path d="m176 168a16 16 0 0 1 -16 16h-96a16 16 0 0 1 -16-16 63.783 63.783 0 0 1 20.04-46.5 63.856 63.856 0 0 0 19.96-46.42v-3.08h48v3.08a63.856 63.856 0 0 0 19.96 46.42 63.783 63.783 0 0 1 20.04 46.5z" fill="#e9eef2"/><path d="m176 168a16 16 0 0 1 -16 16h-96a16 16 0 0 1 -16-16 63.746 63.746 0 0 1 20.04-46.5 63.383 63.383 0 0 0 8.24-9.5h71.44a63.383 63.383 0 0 0 8.24 9.5 63.783 63.783 0 0 1 20.04 46.5z" fill="#a3d4f7"/><path d="m64 280h96a16 16 0 0 1 16 16v72a32 32 0 0 1 -32 32h-64a32 32 0 0 1 -32-32v-72a16 16 0 0 1 16-16z" fill="#a3d4f7"/><path d="m88 40h48a16 16 0 0 1 16 16v16a0 0 0 0 1 0 0h-80a0 0 0 0 1 0 0v-16a16 16 0 0 1 16-16z" fill="#2d85cc"/><rect fill="#a3d4f7" height="48" rx="16" width="128" x="48" y="184"/><rect fill="#a3d4f7" height="48" rx="16" width="128" x="48" y="232"/><path d="m160 192h-96a8 8 0 0 1 0-16h96a8 8 0 0 1 0 16z" fill="#99c7e8"/><path d="m160 240h-96a8 8 0 0 1 0-16h96a8 8 0 0 1 0 16z" fill="#99c7e8"/><path d="m160 288h-96a8 8 0 0 1 0-16h96a8 8 0 0 1 0 16z" fill="#99c7e8"/><path d="m434.658 472h-357.316c-12.17 0-22.414-8.573-23.836-19.949l-29.506-236.051h464l-29.506 236.051c-1.422 11.376-11.666 19.949-23.836 19.949z" fill="#eb423f"/><g fill="#d13330"><path d="m24 216h464v48h-464z"/><path d="m96 440a8 8 0 0 1 -8-8v-48a8 8 0 0 1 16 0v48a8 8 0 0 1 -8 8z"/><path d="m128 360a8 8 0 0 1 -8-8v-48a8 8 0 0 1 16 0v48a8 8 0 0 1 -8 8z"/><path d="m128 440a8 8 0 0 1 -8-8v-48a8 8 0 0 1 16 0v48a8 8 0 0 1 -8 8z"/><path d="m160 360a8 8 0 0 1 -8-8v-48a8 8 0 0 1 16 0v48a8 8 0 0 1 -8 8z"/><path d="m160 440a8 8 0 0 1 -8-8v-48a8 8 0 0 1 16 0v48a8 8 0 0 1 -8 8z"/><path d="m192 360a8 8 0 0 1 -8-8v-48a8 8 0 0 1 16 0v48a8 8 0 0 1 -8 8z"/><path d="m192 440a8 8 0 0 1 -8-8v-48a8 8 0 0 1 16 0v48a8 8 0 0 1 -8 8z"/><path d="m320 360a8 8 0 0 1 -8-8v-48a8 8 0 0 1 16 0v48a8 8 0 0 1 -8 8z"/><path d="m320 440a8 8 0 0 1 -8-8v-48a8 8 0 0 1 16 0v48a8 8 0 0 1 -8 8z"/><path d="m352 360a8 8 0 0 1 -8-8v-48a8 8 0 0 1 16 0v48a8 8 0 0 1 -8 8z"/><path d="m352 440a8 8 0 0 1 -8-8v-48a8 8 0 0 1 16 0v48a8 8 0 0 1 -8 8z"/><path d="m384 360a8 8 0 0 1 -8-8v-48a8 8 0 0 1 16 0v48a8 8 0 0 1 -8 8z"/><path d="m384 440a8 8 0 0 1 -8-8v-48a8 8 0 0 1 16 0v48a8 8 0 0 1 -8 8z"/><path d="m416 360a8 8 0 0 1 -8-8v-48a8 8 0 0 1 16 0v48a8 8 0 0 1 -8 8z"/><path d="m416 440a8 8 0 0 1 -8-8v-48a8 8 0 0 1 16 0v48a8 8 0 0 1 -8 8z"/><path d="m256 360a8 8 0 0 1 -8-8v-48a8 8 0 0 1 16 0v48a8 8 0 0 1 -8 8z"/><path d="m256 440a8 8 0 0 1 -8-8v-48a8 8 0 0 1 16 0v48a8 8 0 0 1 -8 8z"/><path d="m224 360a8 8 0 0 1 -8-8v-48a8 8 0 0 1 16 0v48a8 8 0 0 1 -8 8z"/><path d="m224 440a8 8 0 0 1 -8-8v-48a8 8 0 0 1 16 0v48a8 8 0 0 1 -8 8z"/><path d="m288 360a8 8 0 0 1 -8-8v-48a8 8 0 0 1 16 0v48a8 8 0 0 1 -8 8z"/><path d="m288 440a8 8 0 0 1 -8-8v-48a8 8 0 0 1 16 0v48a8 8 0 0 1 -8 8z"/></g><path d="m361.951 239.323 96 176a16 16 0 1 0 28.092-15.323l-96-176z" fill="#f74643"/><path d="m96 360a8 8 0 0 1 -8-8v-48a8 8 0 0 1 16 0v48a8 8 0 0 1 -8 8z" fill="#d13330"/><path d="m150.049 239.659-96 176a16 16 0 0 1 -28.092-15.324l96-176z" fill="#f74643"/></svg>