<svg id="Flat" height="512" viewBox="0 0 512 512" width="512" xmlns="http://www.w3.org/2000/svg"><path d="m88 16-24 88v88h40v-88l24-88z" fill="#8f9e46"/><path d="m88 128h-40l-24-88h40z" fill="#b1bd70"/><path d="m80 240 87.011-102.832a63.989 63.989 0 1 1 101.165-78.209 63.994 63.994 0 0 1 77.916 101.23 63.982 63.982 0 0 1 -91.841 88.3l-142.251 39.511z" fill="#35a872"/><path d="m103.505 255.3c-39.757 16.7-39.113-33.387-39.113-33.387-33.9-24-25.787-74.087-15.2-100.174 16.02-39.463 45.957-9.039 45.957-9.039s8.851-32.7 40.899-32.7c31.952 0 40.8 32.7 40.8 32.7s29.937-30.42 45.955 9.043c10.589 26.087 18.7 76.174-15.2 100.174 0 0 .644 50.087-39.113 33.391 0 0-8.5 16.7-32.5 16.7s-32.485-16.708-32.485-16.708z" fill="#ffd33a"/><path d="m104 240a8 8 0 0 1 -7.357-4.851c-25.172-58.734-8.523-93.287-7.8-94.729a8 8 0 0 1 14.337 7.1c-.248.529-13.747 30.182 8.171 81.325a8 8 0 0 1 -7.351 11.155z" fill="#e6be34"/><path d="m168 240a8 8 0 0 1 -7.313-11.236c22.688-51.335 9.249-81 9.11-81.293a8 8 0 0 1 14.385-7.006c.71 1.444 17.1 36.026-8.861 94.767a8 8 0 0 1 -7.321 4.768z" fill="#e6be34"/><circle cx="288" cy="200" fill="#eb423f" r="72"/><path d="m472 256h-128v-176a64 64 0 0 1 64-64 64 64 0 0 1 64 64z" fill="#c48669"/><path d="m375.99 152a8 8 0 0 1 -.982-15.939 40.666 40.666 0 0 0 13.4-4.783c7.8-4.575 11.59-11.028 11.59-19.723 0-28.243 25.658-38.2 39.226-39.518a8 8 0 0 1 1.579 15.921 39.492 39.492 0 0 0 -13.364 4.39c-7.7 4.3-11.441 10.587-11.441 19.207 0 28.085-25.516 38.7-39.008 40.382a8.084 8.084 0 0 1 -1 .063z" fill="#a36f58"/><path d="m50.652 194.373a16.585 16.585 0 0 0 21.848-1.192l10.332-10.181a16.577 16.577 0 0 1 23.2 0l9.117 8.982a16.577 16.577 0 0 0 23.2 0l9.111-8.982a16.577 16.577 0 0 1 23.2 0l9.117 8.982a16.577 16.577 0 0 0 23.2 0l9.111-8.982a16.577 16.577 0 0 1 23.2 0l9.117 8.982a16.576 16.576 0 0 0 23.2 0l9.11-8.982a16.577 16.577 0 0 1 23.2 0l9.117 8.982a16.577 16.577 0 0 0 23.2 0l9.111-8.982a16.577 16.577 0 0 1 23.2 0l9.117 8.982a16.577 16.577 0 0 0 23.2 0l9.111-8.982a16.577 16.577 0 0 1 23.2 0l10.329 10.181a16.585 16.585 0 0 0 21.845 1.192c11.115-8.761 27.5-.37 26.617 13.627l-23.962 104 10.119 184h-436.238l10.119-184-23.965-104c-.888-14 15.502-22.388 26.617-13.627z" fill="#a36f58"/><path d="m192 256h128v48h-128z" fill="#ccbdae"/></svg>