<svg id="Flat" height="512" viewBox="0 0 512 512" width="512" xmlns="http://www.w3.org/2000/svg"><path d="m24 296h464a0 0 0 0 1 0 0v160a32 32 0 0 1 -32 32h-400a32 32 0 0 1 -32-32v-160a0 0 0 0 1 0 0z" fill="#6a7073"/><path d="m24 296h464v32h-464z" fill="#414649"/><path d="m56 368h128v48h-128z" fill="#e9eef2"/><path d="m216 360h240v96h-240z" fill="#eb423f"/><path d="m152 456h-96a8 8 0 0 1 0-16h96a8 8 0 0 1 0 16z" fill="#4f5659"/><circle cx="184" cy="448" fill="#4f5659" r="8"/><path d="m216 24h256v112h-256z" fill="#606669"/><path d="m248 56h192v48h-192z" fill="#e9eef2"/><path d="m320 136h48v160h-48z" fill="#4f5659"/><path d="m216 360h48v48h-48z" fill="#35a872"/><path d="m264 408h48v48h-48z" fill="#c3c6c7"/><path d="m312 360h48v48h-48z" fill="#c3c6c7"/><path d="m360 408h48v48h-48z" fill="#c3c6c7"/><path d="m408 360h48v48h-48z" fill="#c3c6c7"/><g fill="#e9eef2"><path d="m264 360h48v48h-48z"/><path d="m312 408h48v48h-48z"/><path d="m360 360h48v48h-48z"/><path d="m408 408h48v48h-48z"/></g></svg>