<svg height="512" viewBox="0 0 512 512" width="512" xmlns="http://www.w3.org/2000/svg"><g id="Flat"><path d="m141.766 168h-59.532a32 32 0 0 1 -31.379-25.724l-26.855-118.276h176l-26.855 118.276a32 32 0 0 1 -31.379 25.724z" fill="#e9eef2"/><path d="m88 168h48a0 0 0 0 1 0 0v296a24 24 0 0 1 -24 24 24 24 0 0 1 -24-24v-296a0 0 0 0 1 0 0z" fill="#e1e3e6"/><path d="m136 312v152a24 24 0 0 1 -48 0v-152z" fill="#7e8589"/><path d="m424 488c-13.255 0-24-11.143-24-24.889v-199.111h48v199.111c0 13.746-10.745 24.889-24 24.889z" fill="#e1e3e6"/><path d="m448 304v159.11c0 13.75-10.75 24.89-24 24.89s-24-11.14-24-24.89v-159.11z" fill="#7e8589"/><path d="m424 16c-40.374 0-72 56.225-72 128s31.626 128 72 128 72-56.225 72-128-31.626-128-72-128zm10.11 206.05c-3.6 20.36-7.79 29.6-10.11 32.88-2.32-3.28-6.51-12.52-10.11-32.88-3.8-21.48-5.89-49.2-5.89-78.05s2.09-56.57 5.89-78.05c3.6-20.36 7.79-29.6 10.11-32.88 2.32 3.28 6.51 12.52 10.11 32.88 3.8 21.48 5.89 49.2 5.89 78.05s-2.09 56.57-5.89 78.05zm-66.11-78.05c0-46.4 14.978-87.288 35.589-103.993a166.436 166.436 0 0 0 -4.409 17.573c-4.63 23.16-7.18 53.86-7.18 86.42s2.55 63.26 7.18 86.42a166.436 166.436 0 0 0 4.409 17.573c-20.611-16.705-35.589-57.593-35.589-103.993zm76.411 103.993a166.436 166.436 0 0 0 4.409-17.573c4.63-23.16 7.18-53.86 7.18-86.42s-2.55-63.26-7.18-86.42a166.436 166.436 0 0 0 -4.409-17.573c20.611 16.705 35.589 57.593 35.589 103.993s-14.978 87.288-35.589 103.993z" fill="#e9eef2"/><path d="m256 488c-13.255 0-24-11.143-24-24.889v-199.111h48v199.111c0 13.746-10.745 24.889-24 24.889z" fill="#e1e3e6"/><path d="m280 304v159.11c0 13.75-10.75 24.89-24 24.89s-24-11.14-24-24.89v-159.11z" fill="#7e8589"/><path d="m328 264h-96v-240a73.1 73.1 0 0 1 72.458 63.439z" fill="#e9eef2"/><g fill="#e1e3e6"><path d="m112 128a8 8 0 0 1 -8-8v-48a8 8 0 0 1 16 0v48a8 8 0 0 1 -8 8z"/><path d="m144.01 128a8 8 0 0 1 -7.9-9.316l8-48a8 8 0 0 1 15.784 2.63l-8 48a8 8 0 0 1 -7.884 6.686z"/><path d="m79.99 128a8 8 0 0 1 -7.882-6.686l-8-48a8 8 0 1 1 15.784-2.63l8 48a8 8 0 0 1 -6.577 9.207 8.185 8.185 0 0 1 -1.325.109z"/></g></g></svg>