<svg height="512" viewBox="0 0 512 512" width="512" xmlns="http://www.w3.org/2000/svg"><g id="Flat"><path d="m480 216v-50.108a16 16 0 0 0 -8.062-13.892l-103.938-48h-48l-103.938 48a16 16 0 0 0 -8.062 13.892v50.108a16 16 0 0 0 16 16 16 16 0 0 0 -16 16 16 16 0 0 0 16 16 16 16 0 0 0 -16 16 16 16 0 0 0 16 16 16 16 0 0 0 -16 16 16 16 0 0 0 16 16 16 16 0 0 0 -16 16 16 16 0 0 0 16 16 16 16 0 0 0 -16 16 16 16 0 0 0 16 16 16 16 0 0 0 -16 16 16 16 0 0 0 16 16 16 16 0 0 0 -16 16v16a32 32 0 0 0 32 32h208a32 32 0 0 0 32-32v-16a16 16 0 0 0 -16-16 16 16 0 0 0 16-16 16 16 0 0 0 -16-16 16 16 0 0 0 16-16 16 16 0 0 0 -16-16 16 16 0 0 0 16-16 16 16 0 0 0 -16-16 16 16 0 0 0 16-16 16 16 0 0 0 -16-16 16 16 0 0 0 16-16 16 16 0 0 0 -16-16 16 16 0 0 0 16-16 16 16 0 0 0 -16-16 16 16 0 0 0 16-16z" fill="#ffd33a"/><path d="m88 24h32a16 16 0 0 1 16 16v32a0 0 0 0 1 0 0h-64a0 0 0 0 1 0 0v-32a16 16 0 0 1 16-16z" fill="#ea9f26"/><path d="m80 72h48v32h-48z" fill="#f2c837"/><path d="m160 328h-112a16 16 0 0 1 -16-16v-160.506a16 16 0 0 1 5.757-12.294l42.243-35.2h48l42.243 35.2a16 16 0 0 1 5.757 12.294v160.506a16 16 0 0 1 -16 16z" fill="#ffd33a"/><rect fill="#ffd33a" height="32" rx="16" width="144" x="32" y="328"/><rect fill="#ffd33a" height="32" rx="16" width="144" x="32" y="360"/><path d="m48 424h112a16 16 0 0 1 16 16v16a32 32 0 0 1 -32 32h-80a32 32 0 0 1 -32-32v-16a16 16 0 0 1 16-16z" fill="#ffd33a"/><path d="m32 168h144v128h-144z" fill="#ea9f26"/><rect fill="#ffd33a" height="32" rx="16" width="144" x="32" y="392"/><path d="m104 200-5.839 10.38c-3.988 7.09-10.161 13.62-13.949 20.24-2.152 3.761-4.212 7.571-4.212 12.047 0 12.131 10.207 21.9 24 21.308 13.793.589 24-9.177 24-21.308 0-4.476-2.06-8.286-4.212-12.047-3.788-6.62-9.961-13.15-13.949-20.24z" fill="#f2c837"/><path d="m328 24h32a16 16 0 0 1 16 16v32a0 0 0 0 1 0 0h-64a0 0 0 0 1 0 0v-32a16 16 0 0 1 16-16z" fill="#ea9f26"/><g fill="#f2c837"><path d="m320 72h48v32h-48z"/><path d="m384 168a8 8 0 0 1 -8 8h-168v-10.11a15.827 15.827 0 0 1 1.13-5.89h166.87a8 8 0 0 1 8 8z"/><path d="m480 165.89v10.11h-64a8 8 0 0 1 0-16h62.87a15.827 15.827 0 0 1 1.13 5.89z"/><path d="m160 336h-112a8 8 0 0 1 0-16h112a8 8 0 0 1 0 16z"/><path d="m160 368h-112a8 8 0 0 1 0-16h112a8 8 0 0 1 0 16z"/><path d="m160 400h-112a8 8 0 0 1 0-16h112a8 8 0 0 1 0 16z"/><path d="m160 432h-112a8 8 0 0 1 0-16h112a8 8 0 0 1 0 16z"/><path d="m464 432h-240a8 8 0 0 1 0-16h240a8 8 0 0 1 0 16z"/><path d="m464 400h-240a8 8 0 0 1 0-16h240a8 8 0 0 1 0 16z"/><path d="m464 368h-240a8 8 0 0 1 0-16h240a8 8 0 0 1 0 16z"/><path d="m464 336h-240a8 8 0 0 1 0-16h240a8 8 0 0 1 0 16z"/><path d="m464 304h-240a8 8 0 0 1 0-16h240a8 8 0 0 1 0 16z"/><path d="m464 272h-240a8 8 0 0 1 0-16h240a8 8 0 0 1 0 16z"/><path d="m464 240h-240a8 8 0 0 1 0-16h240a8 8 0 0 1 0 16z"/></g><path d="m240 224h208v144h-208z" fill="#ea9f26"/><path d="m344 264-5.839 10.38c-3.988 7.09-10.161 13.62-13.949 20.24-2.152 3.761-4.212 7.571-4.212 12.047 0 12.131 10.207 21.9 24 21.308 13.793.589 24-9.177 24-21.308 0-4.476-2.06-8.286-4.212-12.047-3.788-6.62-9.961-13.15-13.949-20.24z" fill="#f2c837"/></g></svg>