<svg id="Flat" height="512" viewBox="0 0 512 512" width="512" xmlns="http://www.w3.org/2000/svg"><path d="m488 472-16 16-16-16-16 16-16-16-16 16-16-16-16 16-16-16-16 16-16-16-16 16-16-16-16 16-16-16 8-24v-376l-8-32 16-16 16 16 16-16 16 16 16-16 16 16 16-16 16 16 16-16 16 16 16-16 16 16 16-16 16 16-8 32v376z" fill="#3397e8"/><path d="m376 360c-57.438 0-104 28.654-104 64v16h208v-16c0-35.346-46.562-64-104-64z" fill="#ffb632"/><path d="m240 472-16 16-16-16-16 16-16-16-16 16-16-16-16 16-16-16-16 16-16-16-16 16-16-16-16 16-16-16 8-24v-376l-8-32 16-16 16 16 16-16 16 16 16-16 16 16 16-16 16 16 16-16 16 16 16-16 16 16 16-16 16 16-8 32v376z" fill="#eb423f"/><path d="m176 72a8 8 0 0 1 -8 8h-144v-8l-1.94-7.76a7.753 7.753 0 0 1 1.94-.24h144a8 8 0 0 1 8 8z" fill="#c7312e"/><path d="m232 432v16h-144a8 8 0 0 1 0-16z" fill="#c7312e"/><path d="m64 200h128v208h-128z" fill="#ffb632"/><ellipse cx="128" cy="136" fill="#ffb632" rx="56" ry="32"/><g fill="#eba72e"><path d="m88 200h16v208h-16z"/><path d="m120 200h16v208h-16z"/><path d="m152 200h16v208h-16z"/></g><path d="m233.94 64.24-1.94 7.76v8h-32a8 8 0 0 1 0-16h32a7.753 7.753 0 0 1 1.94.24z" fill="#c7312e"/><path d="m64 440a8 8 0 0 1 -8 8h-32v-16h32a8 8 0 0 1 8 8z" fill="#c7312e"/><path d="m408 200-32-16-32 16v-128h64z" fill="#eb423f"/><ellipse cx="376" cy="128" fill="#ffb632" rx="48" ry="24"/><path d="m424 72a8 8 0 0 1 -8 8h-144v-8l-1.94-7.76a7.753 7.753 0 0 1 1.94-.24h144a8 8 0 0 1 8 8z" fill="#266fab"/><path d="m481.94 64.24-1.94 7.76v8h-32a8 8 0 0 1 0-16h32a7.753 7.753 0 0 1 1.94.24z" fill="#266fab"/><path d="m408 256a8 8 0 0 0 -8 8v40h-16v-40a8 8 0 0 0 -16 0v40h-16v-40a8 8 0 0 0 -16 0v48a40.147 40.147 0 0 0 16 31.989v96.011a8 8 0 0 0 8 8h32a8 8 0 0 0 8-8v-96.011a40.147 40.147 0 0 0 16-31.989v-48a8 8 0 0 0 -8-8z" fill="#e9eef2"/><path d="m480 432v16h-144a8 8 0 0 1 0-16z" fill="#266fab"/><path d="m312 440a8 8 0 0 1 -8 8h-32v-16h32a8 8 0 0 1 8 8z" fill="#266fab"/><path d="m424 264h-112l14.933-32h97.067z" fill="#ffb632"/><circle cx="424" cy="248" fill="#eba72e" r="16"/></svg>