<svg id="Flat" height="512" viewBox="0 0 512 512" width="512" xmlns="http://www.w3.org/2000/svg"><path d="m304 72h-256l-24 80v304 32h304v-336z" fill="#ffb632"/><path d="m24 456h304v32h-304z" fill="#eb423f"/><path d="m48 24h256v48h-256z" fill="#eb423f"/><g fill="#ad6643"><ellipse cx="144.005" cy="232.005" rx="16" ry="24"/><ellipse cx="96.003" cy="272.008" rx="16" ry="23.999"/><ellipse cx="208.003" cy="232.003" rx="16" ry="23.999"/></g><path d="m80 152a8 8 0 0 1 -8 8h-48v-8l2.4-8h45.6a8 8 0 0 1 8 8z" fill="#ea9f26"/><path d="m256 160h-152a8 8 0 0 1 0-16h152a8 8 0 0 1 0 16z" fill="#ea9f26"/><path d="m328 152v8h-40a8 8 0 0 1 0-16h37.6z" fill="#ea9f26"/><path d="m220.005 312.011a31.664 31.664 0 0 0 -12.933 2.715 24.72 24.72 0 0 0 .933-6.715c0-15.464-14.327-28-32-28s-32 12.536-32 28a24.759 24.759 0 0 0 .933 6.715 31.66 31.66 0 0 0 -12.933-2.715c-15.464 0-28 10.745-28 24s12.536 24 28 24 28-10.745 28-24a20.816 20.816 0 0 0 -.383-3.949 35.96 35.96 0 0 0 32.767 0 20.816 20.816 0 0 0 -.384 3.949c0 13.255 12.536 24 28 24s28-10.745 28-24-12.536-24-28-24z" fill="#ad6643"/><ellipse cx="256.003" cy="272.008" fill="#ad6643" rx="16" ry="23.999"/><path d="m120 432h-32a8 8 0 0 1 0-16h32a8 8 0 0 1 0 16z" fill="#ea9f26"/><circle cx="56" cy="424" fill="#ea9f26" r="8"/><path d="m200 456h272a16 16 0 0 1 16 16v16a0 0 0 0 1 0 0h-304a0 0 0 0 1 0 0v-16a16 16 0 0 1 16-16z" fill="#596063"/><path d="m472 456h-272l22.106-49.413c3.894-8.711 14.838-14.587 27.162-14.587h173.464c12.324 0 23.265 5.876 27.162 14.587z" fill="#7e8589"/></svg>