<svg id="Flat" height="512" viewBox="0 0 512 512" width="512" xmlns="http://www.w3.org/2000/svg"><path d="m24 24h464v464h-464z" fill="#eb423f"/><rect fill="#35a872" height="400" rx="16" width="400" x="56" y="56"/><path d="m256 456a32 32 0 0 0 -32 32h64a32 32 0 0 0 -32-32z" fill="#c7312e"/><circle cx="256" cy="256" fill="#d4a811" r="168"/><circle cx="256" cy="256" fill="#ffd33a" r="136"/><circle cx="304" cy="328" fill="#eb423f" r="16"/><circle cx="312" cy="208" fill="#eb423f" r="16"/><path d="m288 176a8 8 0 0 1 -5.657-13.657l8-8a8 8 0 0 1 11.314 11.314l-8 8a7.974 7.974 0 0 1 -5.657 2.343z" fill="#35a872"/><path d="m424 256q0 4.02-.19 8h-159.81v159.81q-3.975.195-8 .19t-8-.19v-159.81h-159.81q-.19-3.975-.19-8t.19-8h159.81v-159.81q3.975-.195 8-.19t8 .19v159.81h159.81q.195 3.975.19 8z" fill="#d4a811"/><circle cx="352" cy="224" fill="#414649" r="8"/><circle cx="288" cy="288" fill="#414649" r="8"/><path d="m344 304a7.974 7.974 0 0 1 -5.657-2.343l-8-8a8 8 0 0 1 11.314-11.314l8 8a8 8 0 0 1 -5.657 13.657z" fill="#35a872"/><circle cx="200" cy="304" fill="#eb423f" r="16"/><circle cx="200" cy="184" fill="#eb423f" r="16"/><path d="m168 232a7.976 7.976 0 0 1 -5.657-2.343l-8-8a8 8 0 0 1 11.314-11.314l8 8a8 8 0 0 1 -5.657 13.657z" fill="#35a872"/><circle cx="224" cy="224" fill="#414649" r="8"/><circle cx="160" cy="288" fill="#414649" r="8"/><path d="m216 360a8 8 0 0 1 -5.657-13.657l8-8a8 8 0 1 1 11.314 11.314l-8 8a7.976 7.976 0 0 1 -5.657 2.343z" fill="#35a872"/></svg>