<svg id="Flat" height="512" viewBox="0 0 512 512" width="512" xmlns="http://www.w3.org/2000/svg"><path d="m304 368c79.529 0 128-64.471 128-144s-48.471-144-128-144h-40v288z" fill="#ed8989"/><path d="m272 368c79.529 0 128-64.471 128-144s-48.471-144-128-144h-40v288z" fill="#ffc9c9"/><path d="m240 368c79.529 0 128-64.471 128-144s-48.471-144-128-144h-48v288z" fill="#ed8989"/><circle cx="192" cy="224" fill="#ffc9c9" r="144"/><path d="m204 248a8 8 0 0 1 -5.657-13.657l32-32a8 8 0 0 1 11.314 11.314l-32 32a7.974 7.974 0 0 1 -5.657 2.343z" fill="#ed8989"/><path d="m128 248a8 8 0 0 1 -5.657-13.657l88-88a8 8 0 0 1 11.314 11.314l-88 88a7.974 7.974 0 0 1 -5.657 2.343z" fill="#ed8989"/><path d="m488 392-48-8v-48l48-8-8 32z" fill="#d46360"/><path d="m384 432c35.346 0 64-32.235 64-72s-28.654-72-64-72h-288v144z" fill="#ed6f6d"/><g fill="#ff9494"><circle cx="96" cy="360" r="72"/><path d="m240 352a8 8 0 0 1 -16 0 64.072 64.072 0 0 0 -64-64h47.96a79.947 79.947 0 0 1 32.04 64z"/><path d="m320 352a8 8 0 0 1 -16 0 64.072 64.072 0 0 0 -64-64h47.96a79.947 79.947 0 0 1 32.04 64z"/><path d="m392 352a8 8 0 0 1 -16 0 64.072 64.072 0 0 0 -64-64h47.96a79.947 79.947 0 0 1 32.04 64z"/></g><circle cx="80" cy="376" fill="#ed6f6d" r="16"/><circle cx="120" cy="336" fill="#ed6f6d" r="8"/></svg>