<svg id="Flat" height="512" viewBox="0 0 512 512" width="512" xmlns="http://www.w3.org/2000/svg"><path d="m223.994 72a8 8 0 0 1 -7.149-11.58l16-32a8 8 0 1 1 14.31 7.156l-16 32a8 8 0 0 1 -7.161 4.424z" fill="#d13330"/><path d="m288.006 72a8 8 0 0 1 -7.161-4.424l-16-32a8 8 0 0 1 14.31-7.156l16 32a8 8 0 0 1 -7.149 11.58z" fill="#d13330"/><path d="m32 200h448v256h-448z" fill="#f7b030"/><path d="m24 456h464v32h-464z" fill="#2978b8"/><path d="m480 200h-448l48-96h352z" fill="#f7b030"/><path d="m184 280h144v176h-144z" fill="#3397e8"/><path d="m256 280h72v176h-72z" fill="#3397e8"/><path d="m64 280h88v144h-88z" fill="#e9eef2"/><path d="m360 280h88v144h-88z" fill="#e9eef2"/><path d="m32 200h64a0 0 0 0 1 0 0v16a32 32 0 0 1 -32 32 32 32 0 0 1 -32-32v-16a0 0 0 0 1 0 0z" fill="#2978b8"/><path d="m96 200h64a0 0 0 0 1 0 0v16a32 32 0 0 1 -32 32 32 32 0 0 1 -32-32v-16a0 0 0 0 1 0 0z" fill="#d13330"/><path d="m160 200h64a0 0 0 0 1 0 0v16a32 32 0 0 1 -32 32 32 32 0 0 1 -32-32v-16a0 0 0 0 1 0 0z" fill="#2978b8"/><path d="m224 200h64a0 0 0 0 1 0 0v16a32 32 0 0 1 -32 32 32 32 0 0 1 -32-32v-16a0 0 0 0 1 0 0z" fill="#d13330"/><path d="m288 200h64a0 0 0 0 1 0 0v16a32 32 0 0 1 -32 32 32 32 0 0 1 -32-32v-16a0 0 0 0 1 0 0z" fill="#2978b8"/><path d="m352 200h64a0 0 0 0 1 0 0v16a32 32 0 0 1 -32 32 32 32 0 0 1 -32-32v-16a0 0 0 0 1 0 0z" fill="#d13330"/><path d="m416 200h64a0 0 0 0 1 0 0v16a32 32 0 0 1 -32 32 32 32 0 0 1 -32-32v-16a0 0 0 0 1 0 0z" fill="#2978b8"/><path d="m64 392h88v32h-88z" fill="#eb423f"/><path d="m360 392h88v32h-88z" fill="#eb423f"/><path d="m288 104h-64l-16-48h96z" fill="#d13330"/><path d="m192 104-32 96h-64l40-96z" fill="#eb423f"/><path d="m288 200h-64l8-96h48z" fill="#eb423f"/><path d="m416 200h-64l-32-96h56z" fill="#eb423f"/><g fill="#3397e8"><path d="m136 104-40 96h-64l48-96z"/><path d="m232 104-8 96h-64l32-96z"/><path d="m352 200h-64l-8-96h40z"/><path d="m480 200h-64l-40-96h56z"/></g><path d="m248 280h16v176h-16z" fill="#2978b8"/></svg>