<svg id="Flat" height="512" viewBox="0 0 512 512" width="512" xmlns="http://www.w3.org/2000/svg"><path d="m320 24v32l-.63 16-15.37 392s-64 24-120 24-136-24-136-24l-15.37-392-.63-16v-32z" fill="#6a7073"/><path d="m320 56v-32h-288v32l.315 8h287.37z" fill="#4f5659"/><path d="m271.99 270.74c.17 17.9-13.81 33.11-31.71 33.26-5.86.05-19.11-1.48-24.07-4.17-10.18 7.51-24.44 12.17-40.21 12.17s-30.03-4.66-40.21-12.17c-4.89 2.65-18.04 4.17-23.79 4.17a32 32 0 0 1 0-64c5.75 0 18.9 1.52 23.79 4.17 10.18-7.51 24.44-12.17 40.21-12.17a73.847 73.847 0 0 1 26.57 4.79c12.52-19.17 5.43-68.79 5.43-68.79h-24a16 16 0 1 1 0-32h24.38a15.947 15.947 0 0 1 12.62 6.17c13.64 17.56 50.47 70.34 50.99 128.57z" fill="#f0c6a4"/><g fill="#414649"><path d="m256 72h-160a8 8 0 0 1 0-16h160a8 8 0 0 1 0 16z"/><path d="m320 56-.63 16h-31.37a8 8 0 0 1 0-16z"/><path d="m72 64a8 8 0 0 1 -8 8h-31.37l-.63-16h32a8 8 0 0 1 8 8z"/><path d="m200 368h-32a8 8 0 0 1 0-16h32a8 8 0 0 1 0 16z"/><path d="m232 400h-96a8 8 0 0 1 0-16h96a8 8 0 0 1 0 16z"/></g><path d="m336 192h96v48h-96z" fill="#c3c6c7"/><path d="m352 232h64a64 64 0 0 1 64 64v160a32 32 0 0 1 -32 32h-128a32 32 0 0 1 -32-32v-160a64 64 0 0 1 64-64z" fill="#e1e3e6"/><rect fill="#266fab" height="48" rx="16" width="112" x="328" y="152"/><path d="m288 304h192v152h-192z" fill="#2d85cc"/><rect fill="#eb423f" height="32" rx="16" transform="matrix(.707 -.707 .707 .707 -152.833 357.657)" width="64" x="323.314" y="347.314"/><path d="m366.63 374.63-11.32 11.31a16 16 0 0 1 -22.62-22.63l11.31-11.31z" fill="#f7b030"/><rect fill="#f7b030" height="32" rx="16" width="64" x="376" y="360"/><path d="m440 376a15.979 15.979 0 0 1 -16 16h-16v-32h16a16 16 0 0 1 16 16z" fill="#eb423f"/><path d="m400 432h-32a8 8 0 0 1 0-16h32a8 8 0 0 1 0 16z" fill="#266fab"/></svg>