<svg id="Flat" height="512" viewBox="0 0 512 512" width="512" xmlns="http://www.w3.org/2000/svg"><path d="m296 456h-256s-16-128-16-200 16-200 16-200h256s16 128 16 200-16 200-16 200z" fill="#eb423f"/><ellipse cx="168" cy="144" fill="#a82a27" rx="80" ry="40"/><path d="m208 152h-80a8 8 0 0 1 0-16h80a8 8 0 0 1 0 16z" fill="#c7312e"/><path d="m296 56h-256l-16-32h288z" fill="#c7312e"/><path d="m40 456h256l16 32h-288z" fill="#c7312e"/><path d="m178.546 264c30.928 0 56 5.49 56 32s-25.072 48-56 48-56-21.49-56-48 25.072-32 56-32z" fill="#e09f2c"/><path d="m144.782 267.716c21.869 21.869 35.716 43.48 16.971 62.225s-51.67 16.213-73.54-5.657-24.4-54.794-5.656-73.539 40.356-4.899 62.225 16.971z" fill="#f7b030"/><path d="m200 184h224v304h-224z" fill="#f7b030"/><path d="m424 184h64v304h-64z" fill="#e09f2c"/><circle cx="312" cy="352" fill="#d49073" r="56"/><g fill="#ad6643"><circle cx="312" cy="304" r="8"/><circle cx="288" cy="360" r="8"/><circle cx="280" cy="328" r="8"/><circle cx="328" cy="376" r="8"/><circle cx="352" cy="352" r="8"/><circle cx="296" cy="392" r="8"/><circle cx="320" cy="336" r="8"/><path d="m248 224h128v32h-128z"/><path d="m344 456h-64a8 8 0 0 1 0-16h64a8 8 0 0 1 0 16z"/></g><path d="m144 416h-40a8 8 0 0 1 0-16h40a8 8 0 0 1 0 16z" fill="#c7312e"/><circle cx="72" cy="408" fill="#c7312e" r="8"/></svg>