<svg id="Flat" height="512" viewBox="0 0 512 512" width="512" xmlns="http://www.w3.org/2000/svg"><path d="m247.996 424h-112l-16-192h144z" fill="#88c791"/><path d="m208 344a8.007 8.007 0 0 1 -7.591-10.532l8-24a8 8 0 0 1 15.179 5.06l-8 24a8 8 0 0 1 -7.588 5.472z" fill="#35a872"/><path d="m176 344a8 8 0 0 1 -7.589-5.472l-8-24a8 8 0 0 1 15.179-5.06l8 24a8.006 8.006 0 0 1 -7.59 10.532z" fill="#35a872"/><path d="m448 364.86a24 24 0 0 1 24 24v56a0 0 0 0 1 0 0h-48a0 0 0 0 1 0 0v-56a24 24 0 0 1 24-24z" fill="#35a872" transform="matrix(0 1 -1 0 852.86 -43.14)"/><path d="m418.115 412.686a24 24 0 0 1 24 24v56a0 0 0 0 1 0 0h-48a0 0 0 0 1 0 0v-56a24 24 0 0 1 24-24z" fill="#35a872" transform="matrix(-.707 .707 -.707 -.707 1033.864 477.132)"/><path d="m391.029 313.948h48a0 0 0 0 1 0 0v56a24 24 0 0 1 -24 24 24 24 0 0 1 -24-24v-56a0 0 0 0 1 0 0z" fill="#35a872" transform="matrix(-.707 -.707 .707 -.707 458.22 897.698)"/><path d="m348.206 468.24-264.836-39.494c-11.104-1.656-19.37-11.846-19.37-23.886 0-12.036 8.266-22.23 19.37-23.886l264.836-39.494c35.83-5.343 67.794 24.54 67.794 63.38 0 38.84-31.964 68.723-67.794 63.38z" fill="#f78a25"/><path d="m317.98 133.152a71.169 71.169 0 0 0 2.437-18.485c0-40.059-33.178-72.534-74.1-72.534a75.047 75.047 0 0 0 -35.131 8.658 74.569 74.569 0 0 0 -57.506-26.791c-40.927 0-74.1 32.474-74.1 72.533a71.008 71.008 0 0 0 9.948 36.284c-.229 0-.455-.017-.685-.017-35.816 0-64.843 28.415-64.843 63.467s29.031 63.466 64.842 63.466a65.581 65.581 0 0 0 33.235-8.97 74.124 74.124 0 0 0 68.656 45.237c35.507 0 65.167-24.449 72.4-57.083a65.306 65.306 0 0 0 48.018 20.816c35.811 0 64.842-28.415 64.842-63.466.007-32.795-25.411-59.776-58.013-63.115z" fill="#35a872"/><g fill="#d46109"><circle cx="352" cy="424" r="8"/><path d="m360 340.97v51.03a8 8 0 0 1 -16 0v-49.89l4.21-.63a56.541 56.541 0 0 1 11.79-.51z"/><path d="m296.01 460.46-16.01-2.39v-42.07a8 8 0 0 1 16 0z"/><path d="m166.413 441.132-15.91-2.376 1.506-34.245a8 8 0 0 1 15.988.7z"/><path d="m111.839 412.862a8.007 8.007 0 0 1 -7.839-8.162l.558-26.877 16.052-2.4-.61 29.604a8 8 0 0 1 -8.161 7.835z"/><circle cx="288" cy="384" r="8"/></g><circle cx="103.996" cy="408" fill="#eb423f" r="80"/><path d="m136 376 8 32-40-16-40 16 8-32c-8-16-32-16-32-16v-.01a80.015 80.015 0 0 1 128 0v.01s-24 0-32 16z" fill="#eb423f"/><path d="m136 376 8 32-40-16-40 16 8-32c-8-16-32-16-32-16v-.01a80.015 80.015 0 0 1 128 0v.01s-24 0-32 16z" fill="#35a872"/><path d="m104 368a8 8 0 0 1 -8-7.991c0-.627-.494-41.886-25.941-48.248a8 8 0 0 1 3.881-15.522c15.949 3.987 27.6 16.577 33.706 36.408a103.137 103.137 0 0 1 4.354 27.353 8 8 0 0 1 -8 8z" fill="#5e3725"/><path d="m232 358.81v65.19a8 8 0 0 1 -16 0v-62.81z" fill="#d46109"/></svg>