<svg id="Flat" height="512" viewBox="0 0 512 512" width="512" xmlns="http://www.w3.org/2000/svg"><path d="m280 104h-128c-13.233 0-24-10.114-24-22.546v-36.363c0-20.452 17.944-37.091 40-37.091h96c22.056 0 40 16.639 40 37.091v36.363c0 12.432-10.767 22.546-24 22.546zm-112-80c-13.233 0-24 9.461-24 21.091v36.363c0 3.609 3.589 6.546 8 6.546h128c4.411 0 8-2.937 8-6.546v-36.363c0-11.63-10.767-21.091-24-21.091z" fill="#2d85cc"/><path d="m336 208h-240a16 16 0 0 1 -16-16v-11.525a32 32 0 0 1 18.59-29.055l77.41-39.42h80l77.41 39.42a32 32 0 0 1 18.59 29.055v11.525a16 16 0 0 1 -16 16z" fill="#a3d4f7"/><path d="m176 80h80v32h-80z" fill="#e1e3e6"/><path d="m184 48h64a16 16 0 0 1 16 16v16a0 0 0 0 1 0 0h-96a0 0 0 0 1 0 0v-16a16 16 0 0 1 16-16z" fill="#2d85cc"/><rect fill="#a3d4f7" height="48" rx="16" width="272" x="80" y="256"/><rect fill="#99c7e8" height="48" rx="16" width="272" x="80" y="208"/><rect fill="#99c7e8" height="48" rx="16" width="272" x="80" y="304"/><rect fill="#a3d4f7" height="48" rx="16" width="272" x="80" y="352"/><rect fill="#99c7e8" height="48" rx="16" width="272" x="80" y="400"/><path d="m320 496h-208a32 32 0 0 1 -32-32 16 16 0 0 1 16-16h240a16 16 0 0 1 16 16 32 32 0 0 1 -32 32z" fill="#a3d4f7"/><g fill="#8fbad9"><path d="m304 312h-208a8 8 0 0 1 0-16h208a8 8 0 0 1 0 16z"/><path d="m304 360h-208a8 8 0 0 1 0-16h208a8 8 0 0 1 0 16z"/><path d="m304 408h-208a8 8 0 0 1 0-16h208a8 8 0 0 1 0 16z"/><path d="m304 456h-208a8 8 0 0 1 0-16h208a8 8 0 0 1 0 16z"/><path d="m352 216h-256a8 8 0 0 1 0-16h256a8 8 0 0 1 0 16z"/><path d="m320 264h-224a8 8 0 0 1 0-16h224a8 8 0 0 1 0 16z"/></g><path d="m432 264a16 16 0 0 1 -16 16h-96a16 16 0 0 1 -16-16 63.783 63.783 0 0 1 20.04-46.5 63.856 63.856 0 0 0 19.96-46.42v-3.08h48v3.08a63.856 63.856 0 0 0 19.96 46.42 63.783 63.783 0 0 1 20.04 46.5z" fill="#e1e3e6"/><path d="m344 136h48a16 16 0 0 1 16 16v16a0 0 0 0 1 0 0h-80a0 0 0 0 1 0 0v-16a16 16 0 0 1 16-16z" fill="#2d85cc"/><path d="m416 280a16 16 0 0 0 16-16 63.783 63.783 0 0 0 -20.04-46.5 63.383 63.383 0 0 1 -8.24-9.5h-71.44a63.383 63.383 0 0 1 -8.24 9.5 63.746 63.746 0 0 0 -20.04 46.5 16 16 0 0 0 16 16 16 16 0 0 0 -16 16v16a16 16 0 0 0 16 16 16 16 0 0 0 -16 16v16a16 16 0 0 0 16 16 16 16 0 0 0 -16 16v72a32 32 0 0 0 32 32h64a32 32 0 0 0 32-32v-72a16 16 0 0 0 -16-16 16 16 0 0 0 16-16v-16a16 16 0 0 0 -16-16 16 16 0 0 0 16-16v-16a16 16 0 0 0 -16-16z" fill="#a8daff"/><path d="m416 288h-96a8 8 0 0 1 0-16h96a8 8 0 0 1 0 16z" fill="#99c7e8"/><path d="m416 336h-96a8 8 0 0 1 0-16h96a8 8 0 0 1 0 16z" fill="#99c7e8"/><path d="m416 384h-96a8 8 0 0 1 0-16h96a8 8 0 0 1 0 16z" fill="#99c7e8"/></svg>